<svg xmlns="http://www.w3.org/2000/svg" width="160" height="160" fill="none" viewBox="0 0 160 160"><style>@media (prefers-color-scheme:dark){#fish{filter:invert(1)}}</style><g id="fish"><path fill="#000" d="M26.102 42.693 5.167 47.215l10.231 18.81-3.075 6.702L0 48.465l2.79-6.08 26.37-6.358zM84.89 65.084q-4.858-6.987-10.589-11.99-5.715-4.962-12.424-8.065-6.681-3.092-14.178-4.244-7.512-1.124-16.014-.319l2.158-4.703q8.978-1.227 16.54-.365 7.59.875 14.124 3.898 6.504 3.01 12.099 8.236 5.594 5.225 10.441 12.85zM69.893 37.209l17.644-7.62 5.588 18.37 6.674 3.087-7.816-23.245L85.928 25l-22.673 9.137zm-36.004 63.162-6.755-3.125-2.636 5.745.52 11.569 4.32 2.025 1.915-10.468zm-2.694-50.317 6.986 3.233-3.714 8.095-6.986-3.232zm39.333 46.333q-8.445.832-15.956-.29-7.47-1.14-14.178-4.245-6.68-3.09-12.424-8.065-5.732-5.004-10.647-12.018l-2.158 4.704q4.906 7.65 10.471 12.863 5.595 5.225 12.128 8.249 6.505 3.01 14.095 3.884t16.51-.378zm16.303-25.594 10.181 18.919-20.885 4.412-3.075 6.702 26.37-6.357 2.79-6.08-12.323-24.263zm43.531 20.142-20.936 4.521 10.232 18.81-3.076 6.702-12.323-24.261 2.79-6.08 26.371-6.359zm16.66 20.369q3.689 3.042 4.619 6.893.943 3.823-.986 8.029-2.667 5.814-8.161 7.309-5.451 1.48-12.44-1.753a38 38 0 0 1-5.744-3.308 43 43 0 0 1-5.278-4.324l2.602-5.673q2.224 2.842 4.711 4.883a24.6 24.6 0 0 0 5.283 3.334q4.735 2.19 8.245 1.249 3.51-.942 5.336-4.922 1.683-3.668.128-6.988-1.542-3.348-5.877-5.354l-4.393-2.033 2.149-4.685 4.393 2.033q3.965 1.834 6.98 1.143 3.015-.693 4.426-3.769 1.49-3.245.196-5.93-1.251-2.7-5.073-4.469-2.538-1.174-5.508-1.864-2.969-.69-6.453-.933l2.408-5.25q3.867.694 6.755 1.484 2.916.802 4.999 1.765 6.219 2.877 8.503 7.698 2.325 4.806-.018 9.913-1.593 3.473-4.623 4.875-3.001 1.417-7.179.647"/></g></svg>