<svg xmlns="http://www.w3.org/2000/svg" width="160" height="160" fill="none" viewBox="0 0 160 160"><style>@media (prefers-color-scheme:dark){#fish{filter:invert(1)}}</style><g id="fish"><path fill="#000" d="M20.14 68.798 3.944 80.948 20.14 92.981v6.948L0 84.06v-6.302l20.14-15.87zm59.3-4.113q-6.922-4.052-13.815-6.063-6.862-1.98-13.846-1.98-6.954 0-13.846 1.98-6.894 2.01-13.877 6.063V59.81q7.227-4.601 14.059-6.856Q44.978 50.7 51.779 50.7q6.77 0 13.633 2.255t14.029 6.856zM55.581 46.783l12.15-13.496 12.035 13.496h6.947L70.843 30h-6.302l-15.87 16.783zm-6.032 68.252h-7.032v5.956l5.004 9.686 4.507.022-2.48-9.708zM27.413 73.077h7.272v8.392h-7.273zM79.44 97.133q-6.922 4.053-13.815 6.064-6.862 1.98-13.846 1.98-6.954 0-13.846-1.98-6.894-2.011-13.877-6.064v4.875q7.227 4.602 14.059 6.856 6.863 2.255 13.664 2.255 6.77 0 13.633-2.255t14.029-6.856zm3.917-28.335 16.195 12.15-16.195 12.034v6.948l20.14-15.87v-6.302l-20.14-15.87zm45.314 0-16.195 12.15 16.195 12.034v6.948l-20.14-15.87v-6.302l20.14-15.87zm22.332 10.826q4.365 1.14 6.681 4.066Q160 86.586 160 90.945q0 6.027-4.128 9.478-4.097 3.423-11.372 3.423-3.059 0-6.236-.556a40.6 40.6 0 0 1-6.236-1.609v-5.88q3.029 1.55 5.969 2.311a23.3 23.3 0 0 0 5.849.761q4.929 0 7.572-2.194t2.643-6.319q0-3.803-2.643-6.026-2.643-2.253-7.156-2.253h-4.573v-4.856h4.573q4.128 0 6.444-1.785t2.316-4.973q0-3.364-2.168-5.149-2.138-1.813-6.117-1.813-2.643 0-5.464.585-2.82.585-5.909 1.755v-5.441q3.594-.936 6.384-1.405 2.822-.468 4.989-.468 6.474 0 10.334 3.218 3.89 3.189 3.89 8.484 0 3.599-2.049 5.997-2.02 2.399-5.909 3.394"/></g></svg>