<svg xmlns="http://www.w3.org/2000/svg" width="286" height="180" viewBox="0 0 286 180"><path fill="currentColor" d="M36 69.351 7.05 91.068 36 112.58V125L0 96.633V85.367L36 57zM142 62q-12.375-7.244-24.696-10.839-12.265-3.54-24.75-3.54-12.429 0-24.75 3.54Q55.483 54.756 43 62v-8.715q12.918-8.223 25.13-12.254Q80.397 37 92.554 37q12.104 0 24.37 4.03Q129.191 45.063 142 53.286zM99.351 30l21.717-24.125L142.581 30H155L126.633 0h-11.266L87 30zM88.569 152H76v10.646l8.943 17.314L93 180l-4.431-17.354zM49 77h13v15H49zm93 43q-12.375 7.243-24.696 10.839-12.265 3.54-24.75 3.54-12.429 0-24.75-3.54Q55.483 127.243 43 120v8.715q12.918 8.224 25.13 12.254Q80.397 145 92.554 145q12.104 0 24.37-4.031T142 128.715zm7-50.649 28.95 21.717L149 112.58V125l36-28.367V85.367L149 57zm81 0-28.95 21.717L230 112.58V125l-36-28.367V85.367L230 57zm39.917 19.351q7.803 2.04 11.943 7.269 4.14 5.177 4.14 12.968 0 10.773-7.378 16.943Q271.297 132 258.293 132q-5.467 0-11.147-.994A72.6 72.6 0 0 1 236 128.13v-10.51q5.414 2.77 10.669 4.131 5.254 1.359 10.456 1.359 8.811 0 13.535-3.921 4.724-3.922 4.724-11.296 0-6.797-4.724-10.772-4.724-4.026-12.792-4.026h-8.174v-8.68h8.174q7.378 0 11.518-3.19t4.141-8.89q0-6.014-3.875-9.203-3.822-3.242-10.934-3.242-4.724 0-9.767 1.045-5.042 1.046-10.562 3.138v-9.726q6.422-1.674 11.411-2.51 5.042-.837 8.918-.837 11.571 0 18.471 5.752 6.953 5.7 6.953 15.165 0 6.431-3.662 10.72-3.609 4.287-10.563 6.065"/></svg>